<svg width="32" height="32" viewBox="0 0 400 400" xmlns="http://www.w3.org/2000/svg">
  <rect width="400" height="400" fill="url(#bgGradient)" rx="80"/>
  <defs>
    <linearGradient id="bgGradient" x1="0%" y1="0%" x2="100%" y2="100%">
      <stop offset="0%" stop-color="#1a1a2e" />
      <stop offset="100%" stop-color="#16213e" />
    </linearGradient>
    <linearGradient id="mainGradient" x1="0%" y1="0%" x2="100%" y2="100%">
      <stop offset="0%" stop-color="#00d4ff" />
      <stop offset="50%" stop-color="#7b2cbf" />
      <stop offset="100%" stop-color="#ff6b35" />
    </linearGradient>
  </defs>
  <g transform="translate(200, 200)">
    <path d="M -80,-20 L -40,-80 L 0,-60 Z" fill="url(#mainGradient)" />
    <path d="M -80,-20 L 0,-60 L -30,-10 Z" fill="url(#mainGradient)" opacity="0.7" />
    <path d="M 40,-80 L 80,-20 L 60,0 Z" fill="url(#mainGradient)" />
    <path d="M 40,-80 L 60,0 L 0,-60 Z" fill="url(#mainGradient)" opacity="0.7" />
    <path d="M 80,20 L 40,80 L 0,60 Z" fill="url(#mainGradient)" />
    <path d="M 80,20 L 0,60 L 30,10 Z" fill="url(#mainGradient)" opacity="0.7" />
    <path d="M -40,80 L -80,20 L -60,0 Z" fill="url(#mainGradient)" />
    <path d="M -40,80 L -60,0 L 0,60 Z" fill="url(#mainGradient)" opacity="0.7" />
    <path d="M -30,-10 L 0,-60 L 30,10 L 0,60 Z" fill="#0a0a0a" />
  </g>
</svg>
